# xmcd
#
# Track frame offsets: 
#        150
#        18243
#        34881
#        52010
#        69936
#        82238
#        97483
#        105269
#        121521
#        136245
#
# Disc length: 2108 seconds
#
# Revision: 0
# Processed by: cddbd v1.5.2PL0 Copyright (c) Steve Scherf et al.
# Submitted via: ExactAudioCopy v1.1
#
DISCID=80083a0a
DTITLE=Citizen Cope - One Lovely Day
DYEAR=2012
DGENRE=Alternative
TTITLE0=One Lovely Day
TTITLE1=Something to Believe In
TTITLE2=Dancer From Brazil
TTITLE3=Back Then
TTITLE4=DFW
TTITLE5=Peace River
TTITLE6=For a Dollar
TTITLE7=Southern Nights
TTITLE8=A Wonder
TTITLE9=Summer Time
EXTD=
EXTT0=
EXTT1=
EXTT2=
EXTT3=
EXTT4=
EXTT5=
EXTT6=
EXTT7=
EXTT8=
EXTT9=
PLAYORDER=
